# xmcd CD database file
# Copyright (C) 1997 Ti Kan
#
# Track frame offsets:
#  183
#  11595
#  23795
#  39095
#  48245
#  60895
#  74870
#  87658
#  99620
#  111120
#  125495
#  138870
#  148833
#  161508
#  176145
#  187733
#
# Disc length: 2770 seconds
#
# Revision: 1
# Processed by: cddbd v1.4b41PL1 Copyright (c) Steve Scherf et al.
# Submitted via: CDWizzard Release:4.20
#
DISCID=d80ad010
DTITLE=Great Blues Performers - Blues Masters
DYEAR=1900
DGENRE=
TTITLE0=Shake Your Money Maker
TTITLE1=Crawling King Snake Blues
TTITLE2=They Call Me Muddy Waters
TTITLE3=One Way Out
TTITLE4=Spoonful
TTITLE5=You're So Fine
TTITLE6=Back Door Man
TTITLE7=Whiskey And Wimmen
TTITLE8=Just A Dream (On My Mind)
TTITLE9=If Walls Could Talk
TTITLE10=Hung Down Head
TTITLE11=I Don't Casr Who Knows
TTITLE12=Tell Me Mama
TTITLE13=I Gotta Get Away From It All
TTITLE14=I Play Dirty
TTITLE15=I Want To Know
EXTD=
EXTT0=
EXTT1=
EXTT2=
EXTT3=
EXTT4=
EXTT5=
EXTT6=
EXTT7=
EXTT8=
EXTT9=
EXTT10=
EXTT11=
EXTT12=
EXTT13=
EXTT14=
EXTT15=
PLAYORDER=
